<svg xmlns="http://www.டிக.org/2000/svg" viewBox="0 0 512 512">
    <rect width="512" height="512" rx="112" fill="#4F46E5"/>
    <path d="M256 96c-88 0-160 54-160 120 0 33 17 63 46 84l-14 42c-2 6 4 11 10 9l48-18c21 8 45 13 70 13 88 0 160-54 160-120S344 96 256 96z" fill="#FFF"/>
    <!-- Cute open book -->
    <path fill="#4F46E5" d="M192 180c0-10 20-20 64-20 20 0 44 10 64 20v60c-20-10-44-20-64-20-20 0-44 10-64 20v-60z"/>
    <!-- Bolt icon -->
    <path fill="#F59E0B" d="M280 180h-20l-10 30h20l-10 30h20l10-30h-20l10-30z"/>
</svg>
